<mxfile host="app.diagrams.net" modified="2023-08-22T03:50:23.905Z" agent="Mozilla/5.0 (Windows NT 10.0; Win64; x64) AppleWebKit/537.36 (KHTML, like Gecko) Chrome/115.0.0.0 Safari/537.36 Edg/115.0.1901.203" etag="csVGP0eoPh6oVdZoKvXi" version="21.6.8" type="github">
  <diagram name="Page-1" id="tV8VrqdomamJOm8G6-sv">
    <mxGraphModel dx="1257" dy="634" grid="1" gridSize="10" guides="1" tooltips="1" connect="1" arrows="1" fold="1" page="1" pageScale="1" pageWidth="850" pageHeight="1100" math="0" shadow="0">
      <root>
        <mxCell id="0" />
        <mxCell id="1" parent="0" />
        <mxCell id="2-zMreS4AZ3xkHDgGBLR-4" value="" style="edgeStyle=orthogonalEdgeStyle;rounded=0;orthogonalLoop=1;jettySize=auto;html=1;entryX=0.5;entryY=0;entryDx=0;entryDy=0;" edge="1" parent="1" source="2-zMreS4AZ3xkHDgGBLR-2" target="2-zMreS4AZ3xkHDgGBLR-8">
          <mxGeometry relative="1" as="geometry">
            <mxPoint x="410" y="179.99999999999994" as="targetPoint" />
          </mxGeometry>
        </mxCell>
        <mxCell id="2-zMreS4AZ3xkHDgGBLR-2" value="MULAI" style="rounded=1;whiteSpace=wrap;html=1;arcSize=50;" vertex="1" parent="1">
          <mxGeometry x="350" y="10" width="120" height="60" as="geometry" />
        </mxCell>
        <mxCell id="2-zMreS4AZ3xkHDgGBLR-3" value="" style="shape=waypoint;sketch=0;size=6;pointerEvents=1;points=[];fillColor=default;resizable=0;rotatable=0;perimeter=centerPerimeter;snapToPoint=1;rounded=1;" vertex="1" parent="1">
          <mxGeometry x="400" y="190" width="20" height="20" as="geometry" />
        </mxCell>
        <mxCell id="2-zMreS4AZ3xkHDgGBLR-10" value="" style="edgeStyle=orthogonalEdgeStyle;rounded=0;orthogonalLoop=1;jettySize=auto;html=1;" edge="1" parent="1" source="2-zMreS4AZ3xkHDgGBLR-8" target="2-zMreS4AZ3xkHDgGBLR-9">
          <mxGeometry relative="1" as="geometry" />
        </mxCell>
        <mxCell id="2-zMreS4AZ3xkHDgGBLR-8" value="&lt;font style=&quot;font-size: 10px;&quot;&gt;TAMPILAN AWAL APLIKASI PENJUALAN&lt;/font&gt;" style="whiteSpace=wrap;html=1;aspect=fixed;" vertex="1" parent="1">
          <mxGeometry x="370" y="130" width="80" height="80" as="geometry" />
        </mxCell>
        <mxCell id="2-zMreS4AZ3xkHDgGBLR-12" value="" style="edgeStyle=orthogonalEdgeStyle;rounded=0;orthogonalLoop=1;jettySize=auto;html=1;" edge="1" parent="1" source="2-zMreS4AZ3xkHDgGBLR-9" target="2-zMreS4AZ3xkHDgGBLR-11">
          <mxGeometry relative="1" as="geometry" />
        </mxCell>
        <mxCell id="2-zMreS4AZ3xkHDgGBLR-14" value="" style="edgeStyle=orthogonalEdgeStyle;rounded=0;orthogonalLoop=1;jettySize=auto;html=1;" edge="1" parent="1" source="2-zMreS4AZ3xkHDgGBLR-9" target="2-zMreS4AZ3xkHDgGBLR-13">
          <mxGeometry relative="1" as="geometry" />
        </mxCell>
        <mxCell id="2-zMreS4AZ3xkHDgGBLR-9" value="&lt;font style=&quot;font-size: 8px;&quot;&gt;APAKAH SUDAH PUNYA AKUN?&lt;/font&gt;" style="rhombus;whiteSpace=wrap;html=1;" vertex="1" parent="1">
          <mxGeometry x="355" y="260" width="110" height="110" as="geometry" />
        </mxCell>
        <mxCell id="2-zMreS4AZ3xkHDgGBLR-23" value="" style="edgeStyle=orthogonalEdgeStyle;rounded=0;orthogonalLoop=1;jettySize=auto;html=1;entryX=1;entryY=0.5;entryDx=0;entryDy=0;" edge="1" parent="1" source="2-zMreS4AZ3xkHDgGBLR-11" target="2-zMreS4AZ3xkHDgGBLR-13">
          <mxGeometry relative="1" as="geometry">
            <mxPoint x="560" y="487.5" as="targetPoint" />
            <Array as="points">
              <mxPoint x="640" y="488" />
            </Array>
          </mxGeometry>
        </mxCell>
        <mxCell id="2-zMreS4AZ3xkHDgGBLR-11" value="DAFTAR AKUN" style="shape=parallelogram;perimeter=parallelogramPerimeter;whiteSpace=wrap;html=1;fixedSize=1;" vertex="1" parent="1">
          <mxGeometry x="590" y="285" width="120" height="60" as="geometry" />
        </mxCell>
        <mxCell id="2-zMreS4AZ3xkHDgGBLR-25" value="" style="edgeStyle=orthogonalEdgeStyle;rounded=0;orthogonalLoop=1;jettySize=auto;html=1;" edge="1" parent="1" source="2-zMreS4AZ3xkHDgGBLR-13" target="2-zMreS4AZ3xkHDgGBLR-24">
          <mxGeometry relative="1" as="geometry" />
        </mxCell>
        <mxCell id="2-zMreS4AZ3xkHDgGBLR-13" value="MASUK BERANDA APLIKASI" style="whiteSpace=wrap;html=1;" vertex="1" parent="1">
          <mxGeometry x="365" y="440" width="90" height="95" as="geometry" />
        </mxCell>
        <mxCell id="2-zMreS4AZ3xkHDgGBLR-15" value="TIDAK" style="text;strokeColor=none;align=center;fillColor=none;html=1;verticalAlign=middle;whiteSpace=wrap;rounded=0;" vertex="1" parent="1">
          <mxGeometry x="500" y="285" width="60" height="30" as="geometry" />
        </mxCell>
        <mxCell id="2-zMreS4AZ3xkHDgGBLR-16" value="YA" style="text;strokeColor=none;align=center;fillColor=none;html=1;verticalAlign=middle;whiteSpace=wrap;rounded=0;" vertex="1" parent="1">
          <mxGeometry x="400" y="390" width="60" height="30" as="geometry" />
        </mxCell>
        <mxCell id="2-zMreS4AZ3xkHDgGBLR-27" value="" style="edgeStyle=orthogonalEdgeStyle;rounded=0;orthogonalLoop=1;jettySize=auto;html=1;" edge="1" parent="1" source="2-zMreS4AZ3xkHDgGBLR-24" target="2-zMreS4AZ3xkHDgGBLR-26">
          <mxGeometry relative="1" as="geometry" />
        </mxCell>
        <mxCell id="2-zMreS4AZ3xkHDgGBLR-24" value="CARI BARANG BERDASARKAN KATEGORI" style="shape=parallelogram;perimeter=parallelogramPerimeter;whiteSpace=wrap;html=1;fixedSize=1;" vertex="1" parent="1">
          <mxGeometry x="350" y="632.5" width="120" height="60" as="geometry" />
        </mxCell>
        <mxCell id="2-zMreS4AZ3xkHDgGBLR-29" value="" style="edgeStyle=orthogonalEdgeStyle;rounded=0;orthogonalLoop=1;jettySize=auto;html=1;" edge="1" parent="1" source="2-zMreS4AZ3xkHDgGBLR-26" target="2-zMreS4AZ3xkHDgGBLR-28">
          <mxGeometry relative="1" as="geometry" />
        </mxCell>
        <mxCell id="2-zMreS4AZ3xkHDgGBLR-32" value="" style="edgeStyle=orthogonalEdgeStyle;rounded=0;orthogonalLoop=1;jettySize=auto;html=1;" edge="1" parent="1" source="2-zMreS4AZ3xkHDgGBLR-26" target="2-zMreS4AZ3xkHDgGBLR-31">
          <mxGeometry relative="1" as="geometry" />
        </mxCell>
        <mxCell id="2-zMreS4AZ3xkHDgGBLR-26" value="&lt;font style=&quot;font-size: 9px;&quot;&gt;APAKAH BARANG YANG DIINGINKAN KETEMU?&lt;/font&gt;" style="rhombus;whiteSpace=wrap;html=1;" vertex="1" parent="1">
          <mxGeometry x="348.75" y="760" width="122.5" height="122.5" as="geometry" />
        </mxCell>
        <mxCell id="2-zMreS4AZ3xkHDgGBLR-28" value="LAKUKAN PENCARIAN BARANG" style="shape=parallelogram;perimeter=parallelogramPerimeter;whiteSpace=wrap;html=1;fixedSize=1;" vertex="1" parent="1">
          <mxGeometry x="552.5" y="791.25" width="120" height="60" as="geometry" />
        </mxCell>
        <mxCell id="2-zMreS4AZ3xkHDgGBLR-30" value="TIDAK" style="text;strokeColor=none;align=center;fillColor=none;html=1;verticalAlign=middle;whiteSpace=wrap;rounded=0;" vertex="1" parent="1">
          <mxGeometry x="480" y="791.25" width="60" height="30" as="geometry" />
        </mxCell>
        <mxCell id="2-zMreS4AZ3xkHDgGBLR-35" value="" style="edgeStyle=orthogonalEdgeStyle;rounded=0;orthogonalLoop=1;jettySize=auto;html=1;" edge="1" parent="1" source="2-zMreS4AZ3xkHDgGBLR-31" target="2-zMreS4AZ3xkHDgGBLR-34">
          <mxGeometry relative="1" as="geometry" />
        </mxCell>
        <mxCell id="2-zMreS4AZ3xkHDgGBLR-37" value="" style="edgeStyle=orthogonalEdgeStyle;rounded=0;orthogonalLoop=1;jettySize=auto;html=1;" edge="1" parent="1" source="2-zMreS4AZ3xkHDgGBLR-31" target="2-zMreS4AZ3xkHDgGBLR-36">
          <mxGeometry relative="1" as="geometry" />
        </mxCell>
        <mxCell id="2-zMreS4AZ3xkHDgGBLR-31" value="PILIH DAN BELI BARANG" style="shape=parallelogram;perimeter=parallelogramPerimeter;whiteSpace=wrap;html=1;fixedSize=1;" vertex="1" parent="1">
          <mxGeometry x="350" y="993.75" width="120" height="60" as="geometry" />
        </mxCell>
        <mxCell id="2-zMreS4AZ3xkHDgGBLR-33" value="YA" style="text;strokeColor=none;align=center;fillColor=none;html=1;verticalAlign=middle;whiteSpace=wrap;rounded=0;" vertex="1" parent="1">
          <mxGeometry x="405" y="920" width="60" height="30" as="geometry" />
        </mxCell>
        <mxCell id="2-zMreS4AZ3xkHDgGBLR-34" value="DATA PEMBELI TERSIMPAN" style="shape=cylinder3;whiteSpace=wrap;html=1;boundedLbl=1;backgroundOutline=1;size=15;" vertex="1" parent="1">
          <mxGeometry x="110" y="973.75" width="75" height="100" as="geometry" />
        </mxCell>
        <mxCell id="2-zMreS4AZ3xkHDgGBLR-39" value="" style="edgeStyle=orthogonalEdgeStyle;rounded=0;orthogonalLoop=1;jettySize=auto;html=1;entryX=0.5;entryY=0;entryDx=0;entryDy=0;" edge="1" parent="1" source="2-zMreS4AZ3xkHDgGBLR-36" target="2-zMreS4AZ3xkHDgGBLR-42">
          <mxGeometry relative="1" as="geometry">
            <mxPoint x="410" y="1273.75" as="targetPoint" />
          </mxGeometry>
        </mxCell>
        <mxCell id="2-zMreS4AZ3xkHDgGBLR-36" value="PEMBAYARAN" style="shape=parallelogram;perimeter=parallelogramPerimeter;whiteSpace=wrap;html=1;fixedSize=1;" vertex="1" parent="1">
          <mxGeometry x="350" y="1133.75" width="120" height="60" as="geometry" />
        </mxCell>
        <mxCell id="2-zMreS4AZ3xkHDgGBLR-42" value="SELESAI" style="rounded=1;whiteSpace=wrap;html=1;arcSize=50;" vertex="1" parent="1">
          <mxGeometry x="350" y="1280" width="120" height="60" as="geometry" />
        </mxCell>
      </root>
    </mxGraphModel>
  </diagram>
</mxfile>
